<?xml version="1.0" encoding="utf-8"?>
<!-- Generator: Adobe Illustrator 23.0.3, SVG Export Plug-In . SVG Version: 6.00 Build 0)  -->
<svg version="1.1" id="Layer_1" xmlns="http://www.w3.org/2000/svg" xmlns:xlink="http://www.w3.org/1999/xlink" x="0px" y="0px"
	 viewBox="0 0 521 100" style="enable-background:new 0 0 521 100;" xml:space="preserve">
<style type="text/css">
	.st0{fill:#1875BA;}
</style>
<g>
	<g>
		<path class="st0" d="M264.71,67.96c-1.36,4.28-3.18,12.07-4.42,16.27c-1,3.34-2.07,5.9-3.07,7.28c-0.84,1.15-2.95,2.95-5.41,2.95
			c-1.91,0-3.34-1.37-3.34-2.87c0-1.16,0.71-2.01,1.51-2.01c0.56,0,0.92,0.3,1.23,0.85c0.76,1.29,1.63,2.14,2.31,2.14
			c0.59,0,1.15-0.69,1.95-3.64c1.36-5.13,3.26-13.44,5.26-20.98h-3.55c-0.4-0.6-0.08-1.63,0.48-1.88h3.54
			c1.04-3.6,2.19-6.64,3.55-8.73c2.03-3.13,4.77-5.01,8.32-5.01c2.99,0,4.9,1.8,4.9,3.85c0,1.5-1.35,2.35-2.39,2.35
			c-1.12,0-1.48-0.6-1.52-1.37c-0.08-2.36-0.87-3.3-2.07-3.3c-1.23,0-2.19,0.81-3.46,3.04c-1.04,1.84-2.27,5.52-3.34,9.16h2.7
			c3.11,0,5.26-0.77,6.21-0.77c0.48,0,1.04,0.69,0.88,1.29c0,0.6-0.12,1.24-0.32,1.8l-4.14,11.34c-0.16,0.39-0.16,0.73,0.16,0.73
			c0.63,0,2.79-1.54,3.98-2.91c0.4,0,0.72,0.43,0.63,0.86c-1.03,1.89-4.86,5.14-7.8,5.14c-0.72,0-1.36-0.73-1.36-1.29
			c0-0.51,0.16-0.94,0.44-1.8l3.78-11.05c0.48-1.37,0.16-1.46-1.51-1.46H264.71z"/>
		<path class="st0" d="M295.49,67.87c0,0.81-0.32,2.27-0.71,3.38c-0.72,2.1-2.63,6.76-3.26,8.48c-0.2,0.51-0.24,0.86,0.07,0.86
			c0.64,0,2.55-1.54,3.67-2.91c0.47-0.09,0.71,0.26,0.71,0.77c-1.35,2.4-4.54,5.09-7.65,5.09c-0.72,0-1.36-0.77-1.36-1.37
			c0-0.51,0.16-1.11,0.72-2.53c1.03-2.57,2.39-6.12,3.34-8.64c0.32-0.86,0.63-1.89,0.63-2.57c0-0.38-0.08-0.73-0.55-0.73
			c-0.68,0-2.39,1.33-4.22,3.81c-2.15,3-4.1,6.93-6.05,11.34c-0.24,0.51-0.71,0.69-1.35,0.69c-0.72,0-2.1-0.26-1.75-1.46
			c0.16-0.56,3.82-11.17,4.22-12.37c0.24-0.69,0.32-1.29-0.16-1.29c-0.8,0-2.31,1.11-3.43,2.23c-0.4,0-0.63-0.34-0.63-0.68
			c1.27-2.18,4.14-4.5,6.84-4.5c1.44,0,1.55,1.29,1.19,2.23l-2.43,6.64h0.16c2.51-3.81,6.17-8.86,9.6-8.86
			C294.85,65.48,295.49,66.67,295.49,67.87z"/>
		<path class="st0" d="M312.17,64.79c0.16-0.08,0.47-0.17,0.8-0.17c0.76,0,1.87,0.26,2.23,1.03c-1.11,2.78-3.66,9.84-5.13,14.3
			c-0.2,0.56-0.04,0.77,0.2,0.77c0.6,0,2.23-0.99,3.98-2.78c0.32,0,0.63,0.26,0.63,0.81c-1.75,2.4-4.86,4.8-7.4,4.8
			c-0.96,0-1.31-0.86-1.31-1.37c0-0.43,0.08-0.9,0.4-1.75l1.44-4.07h-0.12c-2.79,4.07-6.77,7.19-9.08,7.19
			c-1.27,0-2.15-1.2-2.15-2.57c0-1.67,1.59-5.99,4.66-9.72c1.79-2.14,3.62-3.47,4.98-4.24c1.19-0.68,2.15-0.94,3.1-0.94
			c0.32,0,0.64,0.17,0.92,0.3c0.2,0.13,0.6,0.47,0.84,0.81L312.17,64.79z M305.56,69.71c-2.23,2.61-4.3,7.45-4.38,10.28
			c0,0.47,0.16,0.85,0.48,0.85c0.63,0,2.35-1.5,4.06-3.43c2.03-2.23,3.82-6.08,4.38-8.05c-0.32-1.03-0.96-1.5-1.75-1.5
			C307.47,67.87,306.83,68.26,305.56,69.71z"/>
		<path class="st0" d="M334.07,67.87c0,0.81-0.32,2.27-0.71,3.38c-0.72,2.1-2.63,6.76-3.26,8.48c-0.2,0.51-0.24,0.86,0.07,0.86
			c0.64,0,2.55-1.54,3.67-2.91c0.47-0.09,0.72,0.26,0.72,0.77c-1.36,2.4-4.54,5.09-7.65,5.09c-0.72,0-1.36-0.77-1.36-1.37
			c0-0.51,0.16-1.11,0.72-2.53c1.03-2.57,2.39-6.12,3.34-8.64c0.32-0.86,0.63-1.89,0.63-2.57c0-0.38-0.08-0.73-0.55-0.73
			c-0.68,0-2.39,1.33-4.22,3.81c-2.15,3-4.1,6.93-6.05,11.34c-0.24,0.51-0.72,0.69-1.36,0.69c-0.72,0-2.1-0.26-1.75-1.46
			c0.16-0.56,3.82-11.17,4.22-12.37c0.24-0.69,0.32-1.29-0.16-1.29c-0.8,0-2.31,1.11-3.43,2.23c-0.4,0-0.63-0.34-0.63-0.68
			c1.27-2.18,4.14-4.5,6.84-4.5c1.44,0,1.55,1.29,1.19,2.23l-2.43,6.64h0.16c2.51-3.81,6.17-8.86,9.6-8.86
			C333.43,65.48,334.07,66.67,334.07,67.87z"/>
		<path class="st0" d="M335.54,78.83c0-2.83,1.63-7.06,4.5-10.1c2.11-2.23,4.22-3.25,6.33-3.25c2.07,0,3.47,1.2,3.43,2.91
			c0,1.67-1.47,2.35-2.39,2.35c-0.68,0-1.16-0.43-1.19-1.2c-0.08-0.94,0.03-2.35-1-2.35c-0.8,0-1.83,0.86-2.95,2.74
			c-1.23,2.1-2.51,5.26-2.51,8.39c0,1.93,0.67,2.57,1.63,2.57c1.19,0,2.63-0.82,4.26-2.61c0.48,0,0.8,0.34,0.72,0.85
			c-1.47,2.1-4.38,4.41-7.32,4.41C336.89,83.54,335.54,81.92,335.54,78.83z"/>
		<path class="st0" d="M354.29,79.73c-0.16,0.43-0.2,0.81,0.12,0.81c0.63,0,2.83-1.63,3.98-2.95c0.44,0,0.76,0.43,0.68,0.86
			c-1.12,1.8-4.94,5.09-7.96,5.09c-0.68,0-1.27-0.94-1.27-1.33c0-0.47,0.08-0.94,0.36-1.67l4.42-11.26
			c0.16-0.43,0.16-0.69-0.07-0.69c-0.48,0-2.15,1.11-3.43,2.31c-0.4,0-0.68-0.51-0.56-0.86c2.15-2.7,5.54-4.58,7.33-4.58
			c0.55,0,1.19,0.6,1.31,1.2c0.08,0.34-0.07,0.94-0.44,1.84L354.29,79.73z M356.2,59.65c0-1.37,0.91-2.95,2.58-2.95
			c1.16,0,1.83,0.69,1.83,2.01c0,1.54-1.07,2.95-2.59,2.95C356.84,61.66,356.2,60.72,356.2,59.65z"/>
		<path class="st0" d="M375.47,64.79c0.16-0.08,0.48-0.17,0.8-0.17c0.76,0,1.87,0.26,2.23,1.03c-1.11,2.78-3.66,9.84-5.14,14.3
			c-0.2,0.56-0.04,0.77,0.2,0.77c0.59,0,2.23-0.99,3.98-2.78c0.32,0,0.64,0.26,0.64,0.81c-1.75,2.4-4.86,4.8-7.41,4.8
			c-0.95,0-1.31-0.86-1.31-1.37c0-0.43,0.08-0.9,0.4-1.75l1.43-4.07h-0.12c-2.79,4.07-6.76,7.19-9.08,7.19
			c-1.27,0-2.15-1.2-2.15-2.57c0-1.67,1.6-5.99,4.66-9.72c1.79-2.14,3.63-3.47,4.98-4.24c1.19-0.68,2.15-0.94,3.11-0.94
			c0.32,0,0.63,0.17,0.92,0.3c0.2,0.13,0.59,0.47,0.84,0.81L375.47,64.79z M368.86,69.71c-2.23,2.61-4.3,7.45-4.38,10.28
			c0,0.47,0.16,0.85,0.47,0.85c0.64,0,2.35-1.5,4.07-3.43c2.03-2.23,3.82-6.08,4.38-8.05c-0.32-1.03-0.96-1.5-1.75-1.5
			C370.77,67.87,370.14,68.26,368.86,69.71z"/>
		<path class="st0" d="M383.87,79.43c-0.36,1.11-0.4,1.71,0.16,1.71c0.87,0,2.98-2.4,4.34-4.11c0.48,0,0.8,0.26,0.72,0.77
			c-1.11,2.31-3.46,5.74-7.48,5.74c-1.59,0-2.07-0.86-2.07-1.54c0-0.69,0.16-1.46,0.72-3.17l6.57-20.68
			c0.72-2.23,0.55-2.66-0.16-3.08l-0.92-0.51c-0.16-0.26-0.16-0.6,0.08-0.86c1.08-0.43,4.42-1.2,6.37-1.37
			c0.08,0,0.24,0.26,0.24,0.34c-0.55,1.71-1.03,3.09-2.11,6.51L383.87,79.43z"/>
		<path class="st0" d="M415.29,67.87c0,0.81-0.32,2.27-0.72,3.38c-0.72,2.1-2.62,6.76-3.26,8.48c-0.2,0.51-0.24,0.86,0.08,0.86
			c0.63,0,2.55-1.54,3.66-2.91c0.48-0.09,0.72,0.26,0.72,0.77c-1.35,2.4-4.54,5.09-7.64,5.09c-0.72,0-1.36-0.77-1.36-1.37
			c0-0.51,0.16-1.11,0.72-2.53c1.04-2.57,2.39-6.12,3.34-8.64c0.32-0.86,0.64-1.89,0.64-2.57c0-0.38-0.08-0.73-0.56-0.73
			c-0.67,0-2.39,1.33-4.22,3.81c-2.15,3-4.1,6.93-6.05,11.34c-0.24,0.51-0.72,0.69-1.36,0.69c-0.72,0-2.11-0.26-1.75-1.46
			c0.16-0.56,3.82-11.17,4.22-12.37c0.24-0.69,0.32-1.29-0.16-1.29c-0.8,0-2.31,1.11-3.42,2.23c-0.4,0-0.64-0.34-0.64-0.68
			c1.27-2.18,4.14-4.5,6.85-4.5c1.43,0,1.55,1.29,1.19,2.23l-2.43,6.64h0.16c2.51-3.81,6.17-8.86,9.6-8.86
			C414.65,65.48,415.29,66.67,415.29,67.87z"/>
		<path class="st0" d="M417.35,78.88c0-3.21,1.87-8.01,5.66-11.09c2.19-1.76,4.06-2.31,5.57-2.31c1.91,0,3.19,1.54,3.19,2.95
			c0,3.85-5.41,5.95-9.84,7.24c-0.2,0.6-0.36,1.58-0.36,2.78c0,1.58,0.64,2.44,1.75,2.44c1.43,0,2.87-0.9,4.7-2.7
			c0.4,0,0.72,0.43,0.63,0.86c-2.15,3.21-4.94,4.5-7.57,4.5C418.47,83.54,417.35,81.23,417.35,78.88z M425.12,68.73
			c-1.48,1.67-2.43,3.94-2.87,5.48c2.04-0.77,3.27-1.5,4.54-2.91c0.99-1.07,1.47-2.53,1.47-3.21c0-0.56-0.24-1.07-0.76-1.07
			C426.95,67.02,426.11,67.53,425.12,68.73z"/>
		<path class="st0" d="M440.24,68.21l-3.58,11.09c-0.24,0.69-0.16,1.03,0.24,1.03c0.64,0,2.95-1.88,4.38-3.6
			c0.48,0.09,0.72,0.34,0.63,0.94c-1.75,2.83-5.65,5.86-8.2,5.86c-0.8,0-1.44-0.77-1.44-1.46c0-0.6,0.12-1.2,0.48-2.36l3.66-11.52
			h-3.02c-0.24-0.39,0-1.11,0.4-1.37l3.34-0.68l2.54-4.15c0.24-0.17,0.56-0.22,0.96-0.22c0.56,0,1.12,0.22,1.27,0.56l-1.11,3.98
			h3.98c0.48,0.51,0.16,1.63-0.32,1.88H440.24z"/>
		<path class="st0" d="M450,76.82c-0.68,1.93-0.88,2.74-0.88,3.25c0,0.43,0.24,0.77,0.63,0.77c1.08,0,2.87-2.01,4.14-3.73
			c2.23-2.99,3.23-6.29,3.74-8.6c0.48-2.18,1.48-2.95,2.63-2.95c1.08,0,1.75,0.69,1.75,1.54c0,0.94-0.44,1.84-1.36,3.73
			c-1.23,2.53-2.15,5.82-2.15,8.05c0,1.11,0.32,1.88,1.19,1.88c1.12,0,2.99-1.37,4.34-3.77c1.23-2.18,1.87-4.88,1.87-6.51
			c0-1.03-0.08-1.97-0.32-2.95c0.16-1.2,0.96-2.06,2.07-2.06c1.67,0.17,2.11,1.63,2.07,2.87c-0.08,2.66-1.43,6.29-4.62,10.1
			c-2.98,3.56-6.21,5.09-7.88,5.09c-1.03,0-2.31-1.11-2.31-2.57c0-0.98,0.4-2.36,0.72-3.64l-0.08-0.09
			c-0.67,0.98-1.67,2.06-2.39,2.83c-1.63,1.71-3.98,3.47-5.89,3.47c-1.43,0-2.23-1.54-2.23-2.4c0-0.81,0.24-1.84,0.8-3.47l2.7-7.71
			c0.4-1.11,0.36-1.54-0.08-1.54c-0.8,0-2.47,1.54-3.5,2.74c-0.4,0-0.72-0.34-0.72-0.69c1.19-2.06,4.14-5.01,7.09-5.01
			c0.95,0,1.67,1.03,1.67,1.71c0,0.51-0.12,1.33-0.4,2.1L450,76.82z"/>
		<path class="st0" d="M474.01,68.34c2.31-2.27,4.26-2.87,6.05-2.87c3.55,0,4.94,2.61,4.9,5.82c-0.04,2.65-1.23,6.55-3.9,9.29
			c-2.31,2.44-4.54,2.95-6.29,2.95c-3.34,0-5.02-2.49-4.94-5.61C469.91,74.81,471.58,70.78,474.01,68.34z M477.95,79.48
			c1.43-2.23,3.34-7.36,3.34-10.15c0-1.15-0.16-2.31-1.27-2.31c-0.72,0-1.56,0.47-2.59,1.89c-1.87,2.61-3.94,7.7-3.94,10.87
			c0,1.28,0.52,2.23,1.44,2.23C475.88,82,476.75,81.32,477.95,79.48z"/>
		<path class="st0" d="M493.35,69.93l-1.39,4.41h0.24c1.19-2.36,2.55-4.8,3.55-6.12c1.27-1.71,2.35-2.74,3.54-2.74
			c1.27,0,1.83,1.2,1.83,2.4c0,1.33-0.92,3.43-2.15,3.43c-0.48,0-0.64-0.47-0.8-1.24c-0.16-0.86-0.4-1.28-0.8-1.28
			c-0.48,0-1.4,0.94-2.71,3.29c-1.47,2.57-3.14,6.72-4.77,10.79c-0.2,0.51-0.72,0.69-1.35,0.69c-0.8,0-2.19-0.26-1.83-1.46
			c0.88-2.78,2.87-8.73,3.98-12.63c0.2-0.68,0.16-1.11-0.24-1.11c-0.88,0-2.15,1.2-3.1,2.4c-0.4,0-0.72-0.34-0.64-0.85
			c1.04-1.93,3.03-4.41,5.5-4.41C494.35,65.48,493.99,67.96,493.35,69.93z"/>
		<path class="st0" d="M518,68.26c0,1.03-0.48,2.53-2.43,4.24c-1.19,1.07-3.22,2.14-5.21,2.57c-0.24,0.09-0.24,0.43-0.16,0.77
			c0.24,1.03,0.72,2.61,1.15,3.6c0.36,0.81,0.68,1.24,1.16,1.24c0.63,0,1.59-0.94,2.62-2.14c0.32-0.08,0.68,0.17,0.72,0.6
			c-1.19,2.61-3.42,4.41-5.25,4.41c-0.96,0-1.71-0.69-2.31-1.97c-0.52-1.11-0.96-2.61-1.44-4.45c-0.16-0.55-0.48-0.85-0.96-0.77
			c-0.8,0.08-1.03,0.3-1.51,1.58l-1.83,4.92c-0.2,0.51-0.8,0.69-1.35,0.69c-0.72,0-2.19-0.26-1.83-1.46l7.49-23.71
			c0.72-2.31,0.72-2.74,0-3.13l-0.96-0.52c-0.16-0.26-0.16-0.6,0.08-0.86c1.27-0.6,4.3-1.28,6.13-1.54c0.2,0.04,0.32,0.17,0.36,0.34
			c-0.48,1.54-1.04,2.96-1.95,5.86L506.54,71h0.08c2.15-2.4,4.69-5.52,8.2-5.52C517.12,65.48,518,67.02,518,68.26z M511.07,72.75
			c1.59-1.15,2.7-2.53,2.7-3.64c0-0.69-0.47-1.16-1.19-1.16c-1.27,0-2.99,1.24-4.86,3.3c-0.96,1.07-1.91,2.53-2.07,3.13
			c-0.04,0.26,0,0.6,0.4,0.6C506.93,74.98,508.76,74.38,511.07,72.75z"/>
	</g>
	<g>
		<path class="st0" d="M104.21,15.41c-0.29,0.35-1.03,0.4-1.32,0.09c-0.7-2.79-2.55-6.47-7.99-6.47c-5.23,0-10.5,3.99-10.5,13.06
			c0,9.43,5.48,14.04,10.79,14.04c5.19,0,7.45-3.72,8.61-6.6c0.37-0.4,1.03-0.22,1.24,0.18c-0.29,2.97-1.4,5.89-1.98,6.73
			c-0.49,0.09-0.99,0.27-1.44,0.4c-0.91,0.31-3.75,1.06-6.43,1.06c-4.08,0-7.58-0.89-10.54-2.97c-3.34-2.35-5.85-6.38-5.85-12.18
			c0-5.18,2.14-9.21,5.19-11.74c3.05-2.48,7.21-3.76,11.37-3.76c2.35,0,5.19,0.44,7.13,0.97c0.49,0.13,0.78,0.18,1.15,0.27
			C103.71,9.52,103.8,12.13,104.21,15.41z"/>
		<path class="st0" d="M138.19,22.67c0,8.72-6.18,15.23-14.5,15.23c-9.31,0-14.66-7.04-14.66-14.93c0-9.03,6.1-15.72,14.74-15.72
			C133.29,7.26,138.19,14.61,138.19,22.67z M114.63,21.7c0,6.11,2.43,14.44,9.47,14.44c4.7,0,8.49-3.77,8.49-12.67
			c0-6.69-2.8-14.44-9.35-14.44C119.12,9.03,114.63,12.26,114.63,21.7z"/>
		<path class="st0" d="M175.99,36.04c0.41,0.18,0.37,1.11-0.08,1.28c-1.77-0.09-3.38-0.13-5.03-0.13c-1.93,0-3.71,0.04-5.52,0.13
			c-0.33-0.18-0.49-1.02-0.08-1.28l1.11-0.22c1.65-0.27,1.77-0.62,1.77-3.63v-14v-4.12h-0.08c-1.11,2.44-1.69,3.76-2.47,5.54
			l-3.54,7.79c-1.4,3.1-3.46,8.02-4.2,10.1c-0.16,0.18-0.78,0.18-1.07,0c-0.7-2.39-2.47-6.73-3.42-8.95l-3.66-8.5
			c-0.78-1.86-1.9-4.65-2.39-5.98h-0.08c-0.08,2.17-0.16,5.63-0.25,7.49c-0.08,2.7-0.16,6.64-0.16,10.27c0,2.92,0.04,3.63,1.81,3.94
			l1.36,0.27c0.29,0.27,0.29,1.11-0.04,1.28c-1.52-0.09-2.8-0.13-4.33-0.13c-1.32,0-2.8,0.04-4.41,0.13
			c-0.37-0.22-0.37-1.06-0.12-1.28l0.7-0.09c1.98-0.27,2.31-0.93,2.55-3.63c0.33-2.79,0.41-5.67,0.62-10.27
			c0.16-3.01,0.41-6.69,0.41-9.39c0-2.08-0.62-3.01-2.22-3.28l-1.4-0.27c-0.25-0.31-0.21-1.15,0.16-1.28
			c1.24,0.09,2.35,0.13,3.87,0.13c1.44,0,2.88,0,4.41-0.13c0.17,2.66,1.24,4.96,2.27,7.35l4.53,10.23c0.33,0.75,1.4,2.97,1.94,3.99
			c0.66-1.28,1.24-2.52,2.14-4.61l3.87-8.5c1.32-2.92,2.64-5.54,3.34-8.46c1.11,0.09,2.47,0.13,3.38,0.13
			c1.73,0,3.17-0.04,4.33-0.13c0.45,0.18,0.54,1.02,0.12,1.28l-1.36,0.22c-1.81,0.27-2.22,1.02-2.22,3.37
			c0,6.55,0.08,13.11,0.37,19.66c0.12,2.97,0.58,3.28,1.9,3.46L175.99,36.04z"/>
		<path class="st0" d="M215.37,36.04c0.41,0.18,0.37,1.11-0.08,1.28c-1.77-0.09-3.38-0.13-5.03-0.13c-1.93,0-3.71,0.04-5.52,0.13
			c-0.33-0.18-0.49-1.02-0.08-1.28l1.11-0.22c1.65-0.27,1.77-0.62,1.77-3.63v-14v-4.12h-0.08c-1.11,2.44-1.69,3.76-2.47,5.54
			l-3.54,7.79c-1.4,3.1-3.46,8.02-4.2,10.1c-0.16,0.18-0.78,0.18-1.07,0c-0.7-2.39-2.47-6.73-3.42-8.95l-3.66-8.5
			c-0.78-1.86-1.9-4.65-2.39-5.98h-0.08c-0.08,2.17-0.16,5.63-0.25,7.49c-0.08,2.7-0.16,6.64-0.16,10.27c0,2.92,0.04,3.63,1.81,3.94
			l1.36,0.27c0.29,0.27,0.29,1.11-0.04,1.28c-1.52-0.09-2.8-0.13-4.32-0.13c-1.32,0-2.8,0.04-4.41,0.13
			c-0.37-0.22-0.37-1.06-0.12-1.28l0.7-0.09c1.98-0.27,2.31-0.93,2.55-3.63c0.33-2.79,0.41-5.67,0.62-10.27
			c0.16-3.01,0.41-6.69,0.41-9.39c0-2.08-0.62-3.01-2.22-3.28l-1.4-0.27c-0.25-0.31-0.21-1.15,0.16-1.28
			c1.24,0.09,2.35,0.13,3.87,0.13c1.44,0,2.88,0,4.41-0.13c0.17,2.66,1.24,4.96,2.27,7.35l4.53,10.23c0.33,0.75,1.4,2.97,1.94,3.99
			c0.66-1.28,1.24-2.52,2.14-4.61l3.87-8.5c1.32-2.92,2.64-5.54,3.34-8.46c1.11,0.09,2.47,0.13,3.38,0.13
			c1.73,0,3.17-0.04,4.32-0.13c0.45,0.18,0.54,1.02,0.12,1.28l-1.36,0.22c-1.81,0.27-2.22,1.02-2.22,3.37
			c0,6.55,0.08,13.11,0.37,19.66c0.12,2.97,0.58,3.28,1.9,3.46L215.37,36.04z"/>
		<path class="st0" d="M248.11,22.67c0,8.72-6.18,15.23-14.5,15.23c-9.31,0-14.66-7.04-14.66-14.93c0-9.03,6.1-15.72,14.74-15.72
			C243.21,7.26,248.11,14.61,248.11,22.67z M224.55,21.7c0,6.11,2.43,14.44,9.47,14.44c4.7,0,8.49-3.77,8.49-12.67
			c0-6.69-2.8-14.44-9.35-14.44C229.04,9.03,224.55,12.26,224.55,21.7z"/>
		<path class="st0" d="M277.39,29.67c0,1.33,0,6.78,0.13,7.79c-0.33,0.49-0.91,0.66-1.4,0.62c-0.66-0.93-1.85-2.43-4.82-6.07
			l-9.64-11.83c-2.68-3.23-4-4.92-4.69-5.58c-0.13,0-0.13,0.49-0.13,2.83v8.64c0,3.32,0.04,7.4,0.74,8.72
			c0.37,0.66,1.07,0.93,2.1,1.11l0.91,0.13c0.37,0.31,0.33,1.15-0.08,1.28c-1.53-0.09-3.13-0.13-4.69-0.13
			c-1.73,0-2.84,0.04-4.28,0.13c-0.33-0.22-0.41-0.97-0.08-1.28l0.91-0.22c0.78-0.13,1.52-0.31,1.81-1.02
			c0.54-1.37,0.54-5.23,0.54-8.72v-10.5c0-3.46,0.04-4.16-1.36-5.45c-0.45-0.4-1.61-0.75-2.18-0.89l-0.62-0.13
			c-0.29-0.27-0.25-1.15,0.16-1.28c1.57,0.18,3.83,0.13,4.86,0.13c0.86,0,1.85-0.04,2.84-0.13c0.7,1.9,5.19,7.48,6.63,9.17
			l4.12,4.78c1.73,2.04,5.56,6.73,5.97,7c0.12-0.13,0.12-0.35,0.12-1.06v-8.64c0-3.32-0.04-7.4-0.78-8.72
			c-0.37-0.66-1.03-0.93-2.06-1.11l-0.95-0.13c-0.37-0.31-0.33-1.15,0.08-1.28c1.61,0.09,3.13,0.13,4.74,0.13
			c1.77,0,2.84-0.04,4.32-0.13c0.33,0.22,0.41,0.97,0.08,1.28l-0.95,0.22c-0.78,0.13-1.48,0.31-1.77,1.02
			c-0.58,1.37-0.58,5.23-0.58,8.72V29.67z"/>
		<path class="st0" d="M324.26,9.3c-1.89,0.4-2.51,1.37-4.04,5.01c-3.13,7.48-5.81,13.55-8.11,19.75c-0.62,1.64-0.95,2.83-1.31,3.68
			c-0.13,0.09-0.42,0.18-0.7,0.18s-0.58-0.04-0.74-0.18c-0.87-2.75-3.46-8.46-5.11-12.27c-1.85,4.03-3.66,8.1-5.23,12.27
			c-0.12,0.09-0.41,0.18-0.7,0.18c-0.29,0-0.58-0.04-0.74-0.18c-0.66-1.99-1.69-4.39-2.88-7.09l-7.95-18.11
			c-0.86-1.99-1.28-2.66-2.97-3.14l-1.15-0.31c-0.29-0.27-0.25-1.02,0.13-1.24c1.48,0.09,3.21,0.13,4.98,0.13
			c1.48,0,3.05-0.04,5.02-0.13c0.33,0.22,0.37,0.97,0.13,1.24l-1.03,0.27c-0.54,0.13-0.95,0.31-0.95,0.71c0,0.4,0.29,1.28,0.99,2.97
			l4.9,11.43c1.4,3.36,2.47,5.67,2.88,6.38c0.87-1.77,1.73-3.85,2.76-6.16c0.25-0.66,0.58-1.42,0.58-1.68
			c0-0.22-0.17-0.75-0.37-1.33l-4.33-9.83c-0.82-1.77-1.28-2.21-2.39-2.48l-1.19-0.27c-0.29-0.31-0.25-1.02,0.12-1.24
			c1.69,0.09,3.05,0.13,4.45,0.13c1.65,0,3.25-0.04,4.9-0.13c0.33,0.18,0.37,0.97,0.08,1.24l-1.11,0.27
			c-0.45,0.13-0.7,0.31-0.7,0.62c0,0.27,0.08,0.75,0.37,1.46c0.91,2.21,1.86,4.47,2.8,6.47c0.7-1.51,1.36-3.14,2.02-4.78
			c0.62-1.55,0.91-2.66,0.91-3.06c0-0.31-0.25-0.53-0.82-0.66l-1.15-0.31c-0.29-0.35-0.2-1.06,0.12-1.24
			c1.11,0.09,2.27,0.13,3.83,0.13c1.44,0,2.43-0.04,3.75-0.13c0.41,0.22,0.41,1.02,0.08,1.28l-1.03,0.22
			c-1.53,0.35-1.93,0.84-3.26,3.45c-0.91,1.77-1.93,4.16-2.84,6.16c-0.2,0.49-0.41,1.11-0.41,1.24c0,0.13,0.12,0.53,0.33,1.06
			l1.77,4.12c0.86,1.99,1.94,4.69,2.31,5.45c2.1-5.27,4.33-11.11,6.51-16.74c0.7-1.82,1.27-3.54,1.27-4.12
			c0-0.31-0.74-0.49-1.4-0.66l-0.7-0.22c-0.37-0.31-0.37-1.02,0.04-1.24c1.52,0.09,2.8,0.13,4.2,0.13c1.4,0,2.68-0.04,3.95-0.13
			c0.33,0.22,0.42,0.84,0.13,1.24L324.26,9.3z"/>
		<path class="st0" d="M330.24,14.34c0-4.69-0.37-4.83-2.31-5.14l-0.66-0.09c-0.29-0.31-0.25-1.11,0.08-1.28
			c1.56,0.09,3.5,0.13,5.31,0.13h7.87c2.64,0,5.03-0.04,5.56-0.13c0.16,0.75,0.41,4.25,0.66,6.16c-0.17,0.35-0.99,0.44-1.32,0.18
			c-0.66-2.57-1.27-3.67-2.6-4.03c-0.95-0.31-2.18-0.4-3.29-0.4h-2.76c-1.77,0-1.77,0.09-1.77,2.61v7.48c0,1.15,0.04,1.2,0.99,1.2
			h1.97c3.58,0,4.28-0.04,4.57-1.95l0.29-1.5c0.33-0.31,1.11-0.31,1.32,0.04c-0.04,1.2-0.12,2.79-0.12,4.43
			c0,1.68,0.08,3.23,0.12,4.65c-0.21,0.31-0.99,0.31-1.32,0.04l-0.29-1.77c-0.29-1.86-0.99-1.95-4.57-1.95H336
			c-0.95,0-0.99,0.09-0.99,1.2v5.62c0,2.26,0.08,3.85,0.7,4.61c0.49,0.62,1.19,0.97,4.65,0.97c5.23,0.09,6.14-1.2,7.58-4.78
			c0.37-0.31,1.07-0.18,1.32,0.27c-0.25,1.86-1.15,5.23-1.73,6.42c-1.81-0.09-5.35-0.13-10.17-0.13h-4.69
			c-1.81,0-4.32,0.04-6.18,0.13c-0.33-0.18-0.37-0.97-0.08-1.28l1.53-0.18c1.93-0.22,2.31-0.35,2.31-5.05V14.34z"/>
		<path class="st0" d="M359.85,26.35c-1.07,0-1.03,0-1.4,1.2l-1.69,5.31c-0.82,2.61-0.66,2.75,0.86,2.97l1.19,0.22
			c0.29,0.31,0.25,1.11-0.08,1.28c-1.31-0.09-2.68-0.09-4.37-0.13c-1.36,0-2.64,0.04-4.08,0.13c-0.29-0.22-0.33-0.89-0.04-1.28
			l1.23-0.22c1.19-0.18,1.65-0.58,2.27-2.04c0.5-1.15,1.15-3.01,2.02-5.4l5.64-15.77c0.54-1.42,0.91-2.48,0.78-3.23
			c1.44-0.31,2.8-2.13,2.88-2.13c0.33,0,0.54,0.13,0.7,0.35c0.66,1.99,1.19,4.07,1.85,6.07l5.93,18.56
			c0.95,2.97,1.15,3.28,3.26,3.68l0.62,0.13c0.33,0.31,0.33,1.06,0.04,1.28c-1.69-0.09-3.21-0.13-5.35-0.13
			c-1.77,0-3.58,0.09-5.03,0.13c-0.33-0.22-0.37-1.02-0.12-1.28l0.91-0.13c1.48-0.18,1.61-0.44,1.07-2.35l-1.93-6.02
			c-0.41-1.2-0.54-1.2-1.69-1.2H359.85z M364.79,24.35c1.15,0,1.32-0.09,0.99-1.15l-1.73-5.31c-0.7-2.35-0.95-3.19-1.15-3.5h-0.08
			c-0.16,0.31-0.49,1.42-1.24,3.5l-1.73,5.18c-0.45,1.28-0.33,1.28,0.66,1.28H364.79z"/>
		<path class="st0" d="M388.85,29.89c0,2.21,0.08,3.81,0.7,4.56c0.49,0.62,1.15,0.97,4.45,0.97c4.57,0,5.23-0.22,7.12-4.78
			c0.41-0.22,1.07-0.09,1.28,0.27c-0.33,1.86-1.24,5.23-1.73,6.42c-1.73-0.09-5.27-0.13-9.89-0.13h-4.28c-2.1,0-4.16,0.04-5.89,0.13
			c-0.33-0.18-0.45-1.06-0.08-1.28l1.23-0.22c1.94-0.27,2.31-0.4,2.31-5.01V14.34c0-4.61-0.37-4.74-2.31-5.05l-1.15-0.18
			c-0.29-0.22-0.29-1.11,0.08-1.28c2.06,0.09,3.92,0.13,5.81,0.13c1.81,0,3.67-0.04,5.48-0.13c0.37,0.18,0.41,1.06,0.08,1.28
			l-0.91,0.18c-1.93,0.31-2.31,0.44-2.31,5.05V29.89z"/>
		<path class="st0" d="M411.21,11.69c0-1.86-0.04-1.95-1.11-1.95h-2.31c-3.79,0-4.9,0.49-6.43,4.08c-0.29,0.27-1.15,0.13-1.32-0.31
			c0.7-2.39,1.32-5.14,1.61-6.69c0.08-0.13,0.25-0.18,0.46-0.18c0.16,0,0.33,0.04,0.41,0.18c0.21,1.11,0.78,1.15,3.58,1.15h16.8
			c2.02,0,2.64-0.13,3.13-1.15c0.16-0.09,0.33-0.18,0.49-0.18c0.25,0,0.46,0.09,0.54,0.22c-0.41,1.81-0.74,5.62-0.62,7.04
			c-0.21,0.35-0.91,0.44-1.28,0.13c-0.54-3.45-1.32-4.3-5.73-4.3h-2.35c-1.07,0-1.11,0.09-1.11,1.95v19.13c0,4.7,0.37,4.83,2.3,5.05
			l1.48,0.18c0.29,0.31,0.25,1.11-0.08,1.28c-2.39-0.09-4.24-0.13-6.05-0.13c-1.81,0-3.75,0.04-6.38,0.13
			c-0.33-0.18-0.37-1.06-0.08-1.28l1.73-0.22c1.93-0.18,2.3-0.31,2.3-5.01V11.69z"/>
		<path class="st0" d="M441.07,23.03c-2.1,0-2.22,0.09-2.22,1.28v6.51c0,4.7,0.37,4.83,2.31,5.05l1.23,0.18
			c0.29,0.31,0.25,1.11-0.08,1.28c-2.14-0.09-4-0.13-5.81-0.13c-1.81,0-3.67,0.04-5.23,0.13c-0.33-0.18-0.37-0.97-0.08-1.28
			l0.58-0.09c1.93-0.31,2.31-0.44,2.31-5.14V14.34c0-4.69-0.37-4.83-2.31-5.09l-0.91-0.13c-0.29-0.22-0.25-1.11,0.08-1.28
			c1.81,0.09,3.75,0.13,5.56,0.13c1.81,0,3.66-0.04,5.27-0.13c0.33,0.18,0.37,1.06,0.08,1.28l-0.7,0.13
			c-1.93,0.27-2.31,0.4-2.31,5.09v5.36c0,1.24,0.12,1.33,2.22,1.33h9.64c2.1,0,2.22-0.09,2.22-1.33v-5.36
			c0-4.69-0.37-4.83-2.31-5.09l-0.91-0.13c-0.29-0.22-0.25-1.11,0.08-1.28c1.89,0.09,3.75,0.13,5.56,0.13
			c1.81,0,3.66-0.04,5.31-0.13c0.33,0.18,0.37,1.06,0.08,1.28l-0.74,0.13c-1.93,0.27-2.31,0.4-2.31,5.09v16.47
			c0,4.7,0.37,4.83,2.31,5.09l0.91,0.13c0.29,0.31,0.25,1.11-0.08,1.28c-1.81-0.09-3.66-0.13-5.48-0.13c-1.89,0-3.75,0.04-5.56,0.13
			c-0.33-0.18-0.37-0.97-0.08-1.28l0.91-0.13c1.94-0.27,2.31-0.4,2.31-5.09v-6.51c0-1.2-0.12-1.28-2.22-1.28H441.07z"/>
	</g>
	<g>
		<path class="st0" d="M11.43,61.17l0,19.91l8.59-5.01L11.43,61.17z"/>
		<path class="st0" d="M43.82,4.92l0.01,35.4l15.27-8.91L43.82,4.92z"/>
		<g>
			<polygon class="st0" points="43.82,4.92 43.82,6.08 43.32,5.79 			"/>
			<polygon class="st0" points="42.17,7.78 43.82,8.74 43.82,10.39 41.46,9.02 			"/>
			<polygon class="st0" points="40.3,11.02 43.82,13.05 43.82,14.71 39.59,12.26 			"/>
			<polygon class="st0" points="38.44,14.26 43.82,17.37 43.82,19.03 37.72,15.5 			"/>
			<polygon class="st0" points="36.57,17.5 43.82,21.7 43.82,23.35 35.85,18.74 			"/>
			<polygon class="st0" points="34.7,20.73 43.82,26.01 43.82,27.67 33.98,21.98 			"/>
			<polygon class="st0" points="32.83,23.98 43.82,30.33 43.82,31.99 32.11,25.22 			"/>
			<polygon class="st0" points="30.96,27.22 43.82,34.66 43.82,36.31 30.25,28.46 			"/>
			<polygon class="st0" points="29.09,30.45 43.82,38.97 43.82,40.32 28.54,31.41 			"/>
		</g>
		<path class="st0" d="M25.76,36.48l0,26.55l11.45-6.68L25.76,36.48z"/>
		<g>
			<polygon class="st0" points="25.76,62.92 25.76,63.03 14.29,56.35 14.32,56.31 			"/>
			<polygon class="st0" points="25.76,36.48 25.76,37.01 25.53,36.88 			"/>
			<polygon class="st0" points="24.38,38.87 25.76,39.67 25.76,41.33 23.66,40.11 			"/>
			<polygon class="st0" points="22.51,42.11 25.76,43.99 25.76,45.65 21.79,43.35 			"/>
			<polygon class="st0" points="20.64,45.35 25.76,48.31 25.76,49.96 19.92,46.59 			"/>
			<polygon class="st0" points="18.77,48.59 25.76,52.63 25.76,54.28 18.05,49.83 			"/>
			<polygon class="st0" points="16.9,51.83 25.76,56.95 25.76,58.6 16.18,53.07 			"/>
			<polygon class="st0" points="15.03,55.07 25.76,61.27 25.76,62.92 14.32,56.31 			"/>
		</g>
		<path class="st0" d="M61.78,36.47l0,26.55l11.45-6.68L61.78,36.47z"/>
		<g>
			<polygon class="st0" points="61.78,62.92 61.78,63.02 50.31,56.34 50.33,56.3 			"/>
			<polygon class="st0" points="61.78,36.48 61.78,37 61.55,36.88 			"/>
			<polygon class="st0" points="60.39,38.87 61.78,39.67 61.78,41.32 59.68,40.11 			"/>
			<polygon class="st0" points="58.53,42.11 61.78,43.99 61.78,45.64 57.81,43.35 			"/>
			<polygon class="st0" points="56.66,45.35 61.78,48.31 61.78,49.96 55.94,46.59 			"/>
			<polygon class="st0" points="54.79,48.59 61.78,52.62 61.78,54.28 54.07,49.83 			"/>
			<polygon class="st0" points="52.92,51.82 61.78,56.94 61.78,58.6 52.2,53.06 			"/>
			<polygon class="st0" points="51.05,55.06 61.78,61.26 61.78,62.92 50.33,56.3 			"/>
		</g>
		<g>
			<polygon class="st0" points="11.42,61.17 11.42,61.96 11.08,61.76 			"/>
			<polygon class="st0" points="11.42,80.89 11.42,81.08 2.83,76.07 2.89,75.96 			"/>
			<polygon class="st0" points="11.08,61.76 11.42,61.96 11.42,63.62 10.36,63 			"/>
			<polygon class="st0" points="9.21,65.01 11.42,66.28 11.42,67.93 8.49,66.25 			"/>
			<polygon class="st0" points="7.34,68.24 11.42,70.6 11.42,72.25 6.63,69.48 			"/>
			<polygon class="st0" points="5.47,71.48 11.42,74.92 11.42,76.58 4.76,72.72 			"/>
			<polygon class="st0" points="3.61,74.72 11.42,79.24 11.42,80.89 2.89,75.96 			"/>
		</g>
		<g>
			<path class="st0" d="M43.92,61.17l0,19.91l8.59-5.01L43.92,61.17z"/>
			<g>
				<polygon class="st0" points="43.91,80.89 43.91,81.08 35.32,76.07 35.38,75.96 				"/>
				<polygon class="st0" points="43.91,61.17 43.91,61.96 43.57,61.76 				"/>
				<polygon class="st0" points="43.57,61.76 43.91,61.96 43.91,63.62 42.85,63 				"/>
				<polygon class="st0" points="41.7,65.01 43.91,66.28 43.91,67.93 40.98,66.25 				"/>
				<polygon class="st0" points="39.84,68.24 43.91,70.6 43.91,72.25 39.12,69.48 				"/>
				<polygon class="st0" points="37.96,71.48 43.91,74.92 43.91,76.58 37.25,72.72 				"/>
				<polygon class="st0" points="36.1,74.72 43.91,79.24 43.91,80.89 35.38,75.96 				"/>
			</g>
		</g>
		<g>
			<path class="st0" d="M75.95,61.17l0,19.91l8.59-5.01L75.95,61.17z"/>
			<g>
				<polygon class="st0" points="75.95,80.89 75.95,81.08 67.35,76.07 67.42,75.96 				"/>
				<polygon class="st0" points="75.95,61.17 75.95,61.96 75.6,61.76 				"/>
				<polygon class="st0" points="75.6,61.76 75.95,61.96 75.95,63.62 74.89,63 				"/>
				<polygon class="st0" points="73.73,65.01 75.95,66.28 75.95,67.93 73.02,66.25 				"/>
				<polygon class="st0" points="71.87,68.24 75.95,70.6 75.95,72.25 71.15,69.48 				"/>
				<polygon class="st0" points="70,71.48 75.95,74.92 75.95,76.58 69.28,72.72 				"/>
				<polygon class="st0" points="68.13,74.72 75.95,79.24 75.95,80.89 67.42,75.96 				"/>
			</g>
		</g>
	</g>
	<g>
		<path class="st0" d="M90.72,74.69c0-3.48,2.72-6.31,6.38-6.31c3.66,0,6.38,2.83,6.38,6.31S100.76,81,97.1,81
			C93.43,81,90.72,78.17,90.72,74.69z M91.85,74.67c0,3.1,2.31,5.54,5.25,5.54c2.93,0,5.25-2.44,5.25-5.54c0-3.06-2.32-5.5-5.25-5.5
			C94.17,69.17,91.85,71.61,91.85,74.67z M94.95,73.07c0-1.01,0-1.15-0.59-1.23l-0.18-0.03c-0.07-0.09-0.05-0.31,0.04-0.38
			c0.84-0.09,1.46-0.11,2.43-0.11c1.4,0,2.84,0.24,2.84,1.8c0,0.88-0.75,1.42-1.26,1.61c-0.04,0.07,0,0.16,0.06,0.25
			c0.78,1.33,1.29,2.17,1.91,2.68c0.18,0.14,0.38,0.18,0.55,0.22c0.04,0.05,0.04,0.16,0,0.22c-0.24,0.04-0.35,0.05-0.71,0.05
			c-0.97,0-1.42-0.36-2.12-1.44c-0.2-0.33-0.55-0.91-0.82-1.37c-0.11-0.16-0.33-0.22-0.62-0.22c-0.2,0-0.24,0.02-0.24,0.22v0.98
			c0,1.13,0,1.27,0.62,1.35l0.24,0.02c0.07,0.07,0.05,0.33-0.02,0.38c-0.58-0.02-0.97-0.04-1.53-0.04c-0.47,0-0.93,0.02-1.46,0.04
			c-0.11-0.05-0.13-0.31-0.04-0.38l0.28-0.02c0.58-0.07,0.62-0.16,0.62-1.35V73.07z M96.24,74.3c0,0.33,0.06,0.35,0.64,0.35
			c0.36,0,0.69-0.07,0.93-0.35c0.2-0.24,0.31-0.58,0.31-1.02c0-0.78-0.49-1.44-1.33-1.44c-0.42,0-0.55,0.04-0.55,0.42V74.3z"/>
	</g>
</g>
</svg>
